<svg width="221" height="60" viewBox="0 0 221 60" fill="none" xmlns="http://www.w3.org/2000/svg">
<path d="M0.0568181 59V0.81818H12.358V48.858H37.3011V59H0.0568181ZM96.6477 29.9091C96.6477 36.2538 95.4451 41.6515 93.0398 46.1023C90.6534 50.553 87.3958 53.9527 83.267 56.3011C79.1572 58.6307 74.536 59.7955 69.4034 59.7955C64.233 59.7955 59.5928 58.6212 55.483 56.2727C51.3731 53.9242 48.125 50.5246 45.7386 46.0739C43.3523 41.6231 42.1591 36.2348 42.1591 29.9091C42.1591 23.5644 43.3523 18.1667 45.7386 13.7159C48.125 9.26515 51.3731 5.875 55.483 3.54545C59.5928 1.19697 64.233 0.0227251 69.4034 0.0227251C74.536 0.0227251 79.1572 1.19697 83.267 3.54545C87.3958 5.875 90.6534 9.26515 93.0398 13.7159C95.4451 18.1667 96.6477 23.5644 96.6477 29.9091ZM84.1761 29.9091C84.1761 25.7992 83.5606 22.3333 82.3295 19.5114C81.1174 16.6894 79.4034 14.5492 77.1875 13.0909C74.9716 11.6326 72.3769 10.9034 69.4034 10.9034C66.4299 10.9034 63.8352 11.6326 61.6193 13.0909C59.4034 14.5492 57.6799 16.6894 56.4489 19.5114C55.2367 22.3333 54.6307 25.7992 54.6307 29.9091C54.6307 34.0189 55.2367 37.4848 56.4489 40.3068C57.6799 43.1288 59.4034 45.2689 61.6193 46.7273C63.8352 48.1856 66.4299 48.9148 69.4034 48.9148C72.3769 48.9148 74.9716 48.1856 77.1875 46.7273C79.4034 45.2689 81.1174 43.1288 82.3295 40.3068C83.5606 37.4848 84.1761 34.0189 84.1761 29.9091Z" fill="white"/>
<path d="M144.339 19.625C143.942 18.2424 143.383 17.0208 142.663 15.9602C141.944 14.8807 141.063 13.9716 140.021 13.233C138.999 12.4754 137.824 11.8977 136.499 11.5C135.192 11.1023 133.743 10.9034 132.152 10.9034C129.179 10.9034 126.565 11.642 124.311 13.1193C122.076 14.5966 120.334 16.7462 119.084 19.5682C117.834 22.3712 117.209 25.7992 117.209 29.8523C117.209 33.9053 117.824 37.3523 119.055 40.1932C120.286 43.0341 122.029 45.2027 124.283 46.6989C126.536 48.1761 129.197 48.9148 132.266 48.9148C135.05 48.9148 137.427 48.4223 139.396 47.4375C141.385 46.4337 142.9 45.0227 143.942 43.2045C145.002 41.3864 145.533 39.2367 145.533 36.7557L148.033 37.125H133.033V27.8636H157.379V35.1932C157.379 40.3068 156.3 44.7008 154.141 48.375C151.982 52.0303 149.008 54.8523 145.22 56.8409C141.432 58.8106 137.095 59.7955 132.209 59.7955C126.754 59.7955 121.963 58.5928 117.834 56.1875C113.705 53.7633 110.485 50.3258 108.175 45.875C105.883 41.4053 104.737 36.1023 104.737 29.9659C104.737 25.25 105.419 21.0455 106.783 17.3523C108.165 13.6402 110.097 10.4962 112.578 7.92045C115.059 5.3447 117.947 3.38447 121.243 2.03977C124.538 0.695073 128.108 0.0227251 131.953 0.0227251C135.249 0.0227251 138.317 0.50568 141.158 1.47159C143.999 2.41856 146.518 3.76326 148.714 5.50568C150.93 7.2481 152.739 9.32197 154.141 11.7273C155.542 14.1136 156.442 16.7462 156.839 19.625H144.339ZM220.085 29.9091C220.085 36.2538 218.883 41.6515 216.477 46.1023C214.091 50.553 210.833 53.9527 206.705 56.3011C202.595 58.6307 197.973 59.7955 192.841 59.7955C187.67 59.7955 183.03 58.6212 178.92 56.2727C174.811 53.9242 171.563 50.5246 169.176 46.0739C166.79 41.6231 165.597 36.2348 165.597 29.9091C165.597 23.5644 166.79 18.1667 169.176 13.7159C171.563 9.26515 174.811 5.875 178.92 3.54545C183.03 1.19697 187.67 0.0227251 192.841 0.0227251C197.973 0.0227251 202.595 1.19697 206.705 3.54545C210.833 5.875 214.091 9.26515 216.477 13.7159C218.883 18.1667 220.085 23.5644 220.085 29.9091ZM207.614 29.9091C207.614 25.7992 206.998 22.3333 205.767 19.5114C204.555 16.6894 202.841 14.5492 200.625 13.0909C198.409 11.6326 195.814 10.9034 192.841 10.9034C189.867 10.9034 187.273 11.6326 185.057 13.0909C182.841 14.5492 181.117 16.6894 179.886 19.5114C178.674 22.3333 178.068 25.7992 178.068 29.9091C178.068 34.0189 178.674 37.4848 179.886 40.3068C181.117 43.1288 182.841 45.2689 185.057 46.7273C187.273 48.1856 189.867 48.9148 192.841 48.9148C195.814 48.9148 198.409 48.1856 200.625 46.7273C202.841 45.2689 204.555 43.1288 205.767 40.3068C206.998 37.4848 207.614 34.0189 207.614 29.9091Z" fill="#EA5266"/>
</svg>
